<svg width="229" height="144" viewBox="0 0 229 144" fill="none" xmlns="http://www.w3.org/2000/svg">
<path d="M113.556 121.398C105.674 121.398 98.7379 119.585 92.7475 115.959C86.7571 112.333 82.0673 107.289 78.678 100.825C75.3676 94.3621 73.7123 86.8348 73.7123 78.2433C73.7123 69.5731 75.3676 62.0063 78.678 55.543C82.0673 49.0797 86.7571 44.0352 92.7475 40.4095C98.7379 36.7837 105.674 34.9709 113.556 34.9709C121.517 34.9709 128.493 36.7837 134.483 40.4095C140.473 43.9564 145.124 48.9615 148.434 55.4248C151.823 61.8881 153.518 69.4942 153.518 78.2433C153.518 86.9136 151.823 94.4803 148.434 100.944C145.045 107.407 140.355 112.451 134.365 116.077C128.374 119.624 121.438 121.398 113.556 121.398ZM113.556 105.2C118.285 105.2 122.345 104.096 125.734 101.889C129.123 99.6825 131.764 96.5691 133.655 92.5492C135.547 88.4506 136.493 83.6819 136.493 78.2433C136.493 72.7259 135.547 67.9572 133.655 63.9374C131.764 59.8387 129.123 56.6859 125.734 54.4789C122.345 52.272 118.246 51.1685 113.438 51.1685C108.866 51.1685 104.846 52.272 101.378 54.4789C97.9102 56.6071 95.2303 59.6811 93.3386 63.7009C91.5258 67.7208 90.6193 72.5682 90.6193 78.2433C90.6193 83.8396 91.5258 88.6476 93.3386 92.6675C95.2303 96.6873 97.9102 99.8007 101.378 102.008C104.846 104.136 108.906 105.2 113.556 105.2Z" fill="white"/>
<path d="M29.3804 119.388V86.9924L0.413879 36.9807H19.8037L37.4201 70.2036L55.6276 36.9807H74.8993L46.2874 86.9924V119.388H29.3804Z" fill="white"/>
<path d="M228.839 64.0913V89.0025C228.839 99.8796 226.12 107.998 220.681 113.358C215.243 118.717 207.243 121.398 196.681 121.398C186.04 121.398 178.001 118.757 172.562 113.476C167.202 108.195 164.522 100.234 164.522 89.5933V64.0913L175.561 58.8726L181.429 63.1968V87.7017C181.429 91.7215 181.823 95.0716 182.611 97.7515C183.399 100.431 184.897 102.441 187.104 103.781C189.39 105.121 192.582 105.792 196.681 105.792C200.78 105.791 203.893 105.121 206.021 103.781C208.228 102.441 209.765 100.431 210.632 97.7515C211.499 95.0716 211.932 91.7609 211.932 87.8199V63.1968L217.8 58.8726L228.839 64.0913ZM181.429 56.0982L175.561 58.8726L164.522 50.7378V36.981H181.429V56.0982ZM228.839 50.7388L217.8 58.8726L211.932 56.0972V45.7027H228.839V50.7388Z" fill="white"/>
</svg>
