<svg width="28" height="38" viewBox="0 0 28 38" fill="none" xmlns="http://www.w3.org/2000/svg">
<path d="M27.6096 12.3188V23.3423C27.6095 28.1546 26.4703 31.7463 24.1917 34.1177C21.9128 36.4891 18.5606 37.6753 14.135 37.6753C9.67642 37.6753 6.3074 36.507 4.02856 34.1704C1.7828 31.8338 0.6604 28.311 0.6604 23.603V12.3188L5.2854 10.0112L7.74438 11.9243V22.7661C7.74438 24.5445 7.90932 26.0268 8.2395 27.2124C8.56975 28.3981 9.19763 29.2875 10.1223 29.8804C11.0801 30.4732 12.4176 30.77 14.135 30.77C15.8524 30.77 17.1574 30.4732 18.0491 29.8804C18.9736 29.2875 19.6175 28.3979 19.9807 27.2124C20.3439 26.0268 20.5256 24.5623 20.5256 22.8188V11.9243L22.9856 10.0112L27.6096 12.3188ZM7.74438 8.78369L5.2854 10.0112L0.6604 6.4126V0.324707H7.74438V8.78369ZM27.6096 6.4126L22.9856 10.0112L20.5256 8.78369V4.18408H27.6096V6.4126Z" fill="#212329"/>
</svg>
